<svg xmlns="http://www.w3.org/2000/svg" viewBox="0 0 32 32">
  <defs>
    <linearGradient id="grad" x1="0%" y1="0%" x2="100%" y2="100%">
      <stop offset="0%" style="stop-color:#34d399;stop-opacity:1" />
      <stop offset="100%" style="stop-color:#059669;stop-opacity:1" />
    </linearGradient>
  </defs>
  <rect width="32" height="32" rx="8" fill="url(#grad)"/>
  <path d="M16 6c-1.5 0-3 1-3.5 2.5-.3.8-.5 1.7-.5 2.5 0 2 1 3.5 2 4.5-1.5.5-3 1.5-4 3-.8 1.2-1 2.5-1 4h2c0-1 .2-2 .8-2.8.8-1.2 2.2-2.2 4.2-2.2s3.4 1 4.2 2.2c.6.8.8 1.8.8 2.8h2c0-1.5-.2-2.8-1-4-1-1.5-2.5-2.5-4-3 1-1 2-2.5 2-4.5 0-.8-.2-1.7-.5-2.5C19 7 17.5 6 16 6zm0 2c.8 0 1.5.5 1.8 1.2.2.5.2 1 .2 1.8 0 1.2-.5 2-1.2 2.8-.3.3-.5.5-.8.7-.3-.2-.5-.4-.8-.7-.7-.8-1.2-1.6-1.2-2.8 0-.8 0-1.3.2-1.8.3-.7 1-1.2 1.8-1.2z" fill="white"/>
</svg>
